<svg width="1280" height="720" xmlns="http://www.w3.org/2000/svg" viewBox="0 0 1280 720">
  <!-- Background -->
  <rect width="1280" height="720" fill="#F9FAFB"/>

  <!-- Header -->
  <rect width="1280" height="64" fill="#3B82F6"/>
  <text x="40" y="40" font-family="Inter, sans-serif" font-size="24" font-weight="bold" fill="white">Time Is Money</text>

  <!-- Sidebar -->
  <rect x="0" y="64" width="240" height="656" fill="#FFFFFF" stroke="#E5E7EB" stroke-width="1"/>

  <!-- Main Content Area -->
  <rect x="240" y="64" width="1040" height="656" fill="#F9FAFB"/>

  <!-- Dashboard Cards -->
  <rect x="280" y="100" width="240" height="120" fill="white" rx="8" stroke="#E5E7EB" stroke-width="1"/>
  <text x="300" y="130" font-family="Inter, sans-serif" font-size="14" fill="#6B7280">Heures ce mois</text>
  <text x="300" y="170" font-family="Inter, sans-serif" font-size="32" font-weight="bold" fill="#111827">142.5h</text>

  <rect x="540" y="100" width="240" height="120" fill="white" rx="8" stroke="#E5E7EB" stroke-width="1"/>
  <text x="560" y="130" font-family="Inter, sans-serif" font-size="14" fill="#6B7280">Revenus</text>
  <text x="560" y="170" font-family="Inter, sans-serif" font-size="32" font-weight="bold" fill="#10B981">€12,450</text>

  <rect x="800" y="100" width="240" height="120" fill="white" rx="8" stroke="#E5E7EB" stroke-width="1"/>
  <text x="820" y="130" font-family="Inter, sans-serif" font-size="14" fill="#6B7280">Projets actifs</text>
  <text x="820" y="170" font-family="Inter, sans-serif" font-size="32" font-weight="bold" fill="#111827">7</text>

  <!-- Chart Area -->
  <rect x="280" y="250" width="760" height="300" fill="white" rx="8" stroke="#E5E7EB" stroke-width="1"/>
  <text x="300" y="280" font-family="Inter, sans-serif" font-size="16" font-weight="600" fill="#111827">Activité hebdomadaire</text>

  <!-- Chart bars -->
  <rect x="320" y="450" width="80" height="60" fill="#3B82F6" opacity="0.8" rx="4"/>
  <rect x="420" y="400" width="80" height="110" fill="#3B82F6" opacity="0.8" rx="4"/>
  <rect x="520" y="420" width="80" height="90" fill="#3B82F6" opacity="0.8" rx="4"/>
  <rect x="620" y="380" width="80" height="130" fill="#3B82F6" opacity="0.8" rx="4"/>
  <rect x="720" y="410" width="80" height="100" fill="#3B82F6" opacity="0.8" rx="4"/>
  <rect x="820" y="430" width="80" height="80" fill="#3B82F6" opacity="0.8" rx="4"/>
  <rect x="920" y="460" width="80" height="50" fill="#3B82F6" opacity="0.8" rx="4"/>

  <!-- Footer -->
  <text x="640" y="680" text-anchor="middle" font-family="Inter, sans-serif" font-size="12" fill="#9CA3AF">Time Is Money - Dashboard</text>
</svg>