<svg width="750" height="1334" xmlns="http://www.w3.org/2000/svg" viewBox="0 0 750 1334">
  <!-- Background -->
  <rect width="750" height="1334" fill="#F9FAFB"/>

  <!-- Status Bar -->
  <rect width="750" height="44" fill="#3B82F6"/>

  <!-- Header -->
  <rect y="44" width="750" height="88" fill="#3B82F6"/>
  <text x="375" y="100" text-anchor="middle" font-family="Inter, sans-serif" font-size="28" font-weight="bold" fill="white">Time Is Money</text>

  <!-- Timer Card -->
  <rect x="30" y="160" width="690" height="280" fill="white" rx="16" stroke="#E5E7EB" stroke-width="2"/>

  <!-- Timer Display -->
  <circle cx="375" cy="300" r="80" fill="none" stroke="#3B82F6" stroke-width="8"/>
  <text x="375" y="310" text-anchor="middle" font-family="Inter, sans-serif" font-size="42" font-weight="bold" fill="#111827">02:45:30</text>
  <text x="375" y="380" text-anchor="middle" font-family="Inter, sans-serif" font-size="18" fill="#6B7280">Projet Client A</text>

  <!-- Start/Stop Button -->
  <rect x="275" y="470" width="200" height="60" fill="#10B981" rx="30"/>
  <text x="375" y="510" text-anchor="middle" font-family="Inter, sans-serif" font-size="20" font-weight="600" fill="white">Démarrer</text>

  <!-- Recent Activities -->
  <text x="30" y="580" font-family="Inter, sans-serif" font-size="20" font-weight="600" fill="#111827">Activités récentes</text>

  <!-- Activity Item 1 -->
  <rect x="30" y="610" width="690" height="100" fill="white" rx="12" stroke="#E5E7EB" stroke-width="1"/>
  <rect x="50" y="635" width="4" height="50" fill="#3B82F6" rx="2"/>
  <text x="70" y="655" font-family="Inter, sans-serif" font-size="16" font-weight="500" fill="#111827">Développement Frontend</text>
  <text x="70" y="680" font-family="Inter, sans-serif" font-size="14" fill="#6B7280">Projet Beta - 3h 20min</text>

  <!-- Activity Item 2 -->
  <rect x="30" y="730" width="690" height="100" fill="white" rx="12" stroke="#E5E7EB" stroke-width="1"/>
  <rect x="50" y="755" width="4" height="50" fill="#10B981" rx="2"/>
  <text x="70" y="775" font-family="Inter, sans-serif" font-size="16" font-weight="500" fill="#111827">Réunion Client</text>
  <text x="70" y="800" font-family="Inter, sans-serif" font-size="14" fill="#6B7280">Projet Alpha - 1h 15min</text>

  <!-- Activity Item 3 -->
  <rect x="30" y="850" width="690" height="100" fill="white" rx="12" stroke="#E5E7EB" stroke-width="1"/>
  <rect x="50" y="875" width="4" height="50" fill="#F59E0B" rx="2"/>
  <text x="70" y="895" font-family="Inter, sans-serif" font-size="16" font-weight="500" fill="#111827">Code Review</text>
  <text x="70" y="920" font-family="Inter, sans-serif" font-size="14" fill="#6B7280">Projet Gamma - 45min</text>

  <!-- Bottom Navigation -->
  <rect y="1200" width="750" height="134" fill="white" stroke="#E5E7EB" stroke-width="1"/>

  <!-- Nav Icons -->
  <rect x="70" y="1240" width="50" height="50" fill="#3B82F6" rx="12"/>
  <rect x="230" y="1240" width="50" height="50" fill="#E5E7EB" rx="12"/>
  <rect x="390" y="1240" width="50" height="50" fill="#E5E7EB" rx="12"/>
  <rect x="550" y="1240" width="50" height="50" fill="#E5E7EB" rx="12"/>
</svg>